<svg xmlns="http://www.w3.org/2000/svg" viewBox="0 0 1200 820" fill="none">
  <defs>
    <linearGradient id="g1" x1="0" y1="0" x2="1200" y2="820" gradientUnits="userSpaceOnUse">
      <stop stop-color="#F6FBFF"/>
      <stop offset="1" stop-color="#DDEAF8"/>
    </linearGradient>
    <linearGradient id="g2" x1="250" y1="120" x2="940" y2="620" gradientUnits="userSpaceOnUse">
      <stop stop-color="#174068"/>
      <stop offset="1" stop-color="#0E6CC9"/>
    </linearGradient>
    <linearGradient id="g3" x1="420" y1="220" x2="820" y2="540" gradientUnits="userSpaceOnUse">
      <stop stop-color="#F36A21"/>
      <stop offset="1" stop-color="#FFB887"/>
    </linearGradient>
  </defs>
  <rect width="1200" height="820" rx="40" fill="url(#g1)"/>
  <circle cx="1030" cy="140" r="94" fill="#EAF4FE"/>
  <circle cx="190" cy="690" r="118" fill="#EEF5FD"/>
  <rect x="126" y="142" width="948" height="516" rx="36" fill="white" stroke="#D9E7F5" stroke-width="3"/>
  <rect x="168" y="190" width="330" height="410" rx="28" fill="#F5F9FD" stroke="#D9E7F5" stroke-width="2"/>
  <rect x="540" y="190" width="492" height="86" rx="24" fill="#F5F9FD" stroke="#D9E7F5" stroke-width="2"/>
  <rect x="540" y="302" width="492" height="298" rx="28" fill="#F8FBFE" stroke="#D9E7F5" stroke-width="2"/>
  <rect x="208" y="248" width="250" height="38" rx="19" fill="#E4EFFB"/>
  <rect x="208" y="306" width="190" height="18" rx="9" fill="#C8D9EC"/>
  <rect x="208" y="338" width="220" height="18" rx="9" fill="#D7E4F2"/>
  <rect x="208" y="370" width="150" height="18" rx="9" fill="#D7E4F2"/>
  <rect x="208" y="430" width="250" height="118" rx="24" fill="url(#g2)"/>
  <path d="M278 488H390" stroke="white" stroke-width="15" stroke-linecap="round"/>
  <path d="M334 434V542" stroke="white" stroke-width="15" stroke-linecap="round"/>
  <rect x="578" y="332" width="164" height="230" rx="28" fill="#17324E"/>
  <rect x="770" y="332" width="224" height="88" rx="22" fill="#EDF4FB"/>
  <rect x="770" y="444" width="224" height="118" rx="22" fill="#EDF4FB"/>
  <path d="M622 498L678 386L734 498" stroke="#FFE2CF" stroke-width="18" stroke-linecap="round" stroke-linejoin="round"/>
  <path d="M646 470H709" stroke="#C6E3FF" stroke-width="16" stroke-linecap="round"/>
  <path d="M825 378H940" stroke="#BFCFE2" stroke-width="18" stroke-linecap="round"/>
  <path d="M825 403H900" stroke="#D7E4F2" stroke-width="18" stroke-linecap="round"/>
  <path d="M825 474H922" stroke="#BFCFE2" stroke-width="18" stroke-linecap="round"/>
  <path d="M825 506H952" stroke="#D7E4F2" stroke-width="18" stroke-linecap="round"/>
  <circle cx="930" cy="500" r="34" fill="url(#g3)"/>
</svg>